<svg xmlns="http://www.w3.org/2000/svg" viewBox="0 0 112 112"><defs><style>.cls-1{opacity:0.7;}</style></defs><title>Asset 1</title><g id="Layer_2" data-name="Layer 2"><g id="Layer_1-2" data-name="Layer 1"><g class="cls-1"><path d="M80,8a24,24,0,0,1,24,24V80a24,24,0,0,1-24,24H32A24,24,0,0,1,8,80V32A24,24,0,0,1,32,8H80m0-8H32A32,32,0,0,0,0,32V80a32,32,0,0,0,32,32H80a32,32,0,0,0,32-32V32A32,32,0,0,0,80,0Z"/></g><path d="M79.38,39.92H25a1,1,0,0,1-1-1v-14a1,1,0,0,1,1-1H86.38a1,1,0,0,1,.9,1.45l-7,14A1,1,0,0,1,79.38,39.92Z"/><path d="M63.38,64H25a1,1,0,0,1-1-1V49a1,1,0,0,1,1-1H70.38a1,1,0,0,1,.9,1.45l-7,14A1,1,0,0,1,63.38,64Z"/><path d="M75.38,88.08H25a1,1,0,0,1-1-1v-14a1,1,0,0,1,1-1H82.38a1,1,0,0,1,.9,1.45l-7,14A1,1,0,0,1,75.38,88.08Z"/></g></g></svg>